<?xml version="1.0" encoding="UTF-8"?>
<svg width="16px" height="16px" viewBox="0 0 16 16" preserveAspectRatio="none" version="1.1" xmlns="http://www.w3.org/2000/svg" xmlns:xlink="http://www.w3.org/1999/xlink">
    <!-- Generator: Sketch 52.4 (67378) - http://www.bohemiancoding.com/sketch -->
    <title>light_common_small</title>
    <desc>Created with Sketch.</desc>
    <g id="light_common_small" stroke="none" stroke-width="1" fill="none" fill-rule="evenodd">
        <g id="rating_small" transform="translate(0.000000, 0.000000)" fill="#FFFFFF" fill-opacity="0.7">
            <path d="M13.203,6.812 C13.203,6.812 12.149,6.817 11.215,6.82 C10.679,6.886 10.23,7.259 10.1,7.795 L8.568,14.14 C8.474,14.533 8.563,14.941 8.813,15.258 C9.044,15.552 9.384,15.723 9.753,15.749 L11.685,15.746 C12.538,15.746 13.273,15.143 13.441,14.306 L14.525,8.9 C14.718,7.939 14.105,7.037 13.203,6.812 M7.306,13.906 L8.838,7.561 C8.903,7.29 9.017,7.041 9.165,6.818 L8.067,6.813 L8.885,2.369 C9.116,1.137 8.171,0 6.918,0 C6.561,0 6.251,0.244 6.166,0.589 L4.941,5.682 C4.762,6.386 4.425,6.833 3.789,6.833 C2.801,6.833 2,7.634 2,8.623 L2,13.966 C2,14.955 2.801,15.756 3.789,15.756 L7.659,15.75 C7.286,15.21 7.15,14.549 7.306,13.906" id="Fill-1"></path>
        </g>
    </g>
</svg>